<svg width="22" height="22" viewBox="0 0 22 22" fill="none" xmlns="http://www.w3.org/2000/svg">
<path d="M7.17705 17.4391C6.60268 17.4391 6.11115 17.2348 5.70247 16.8261C5.2938 16.4174 5.08911 15.9255 5.08841 15.3505V2.81862C5.08841 2.24424 5.2931 1.75272 5.70247 1.34404C6.11185 0.935363 6.60337 0.730677 7.17705 0.72998H19.7089C20.2833 0.72998 20.7751 0.934667 21.1845 1.34404C21.5939 1.75341 21.7982 2.24494 21.7975 2.81862V15.3505C21.7975 15.9248 21.5932 16.4167 21.1845 16.8261C20.7758 17.2355 20.284 17.4398 19.7089 17.4391H7.17705ZM2.99977 21.6164C2.4254 21.6164 1.93387 21.412 1.52519 21.0034C1.11652 20.5947 0.911829 20.1028 0.911133 19.5277V5.95158C0.911133 5.65569 1.01139 5.40784 1.2119 5.20802C1.41241 5.00821 1.66026 4.90796 1.95545 4.90726C2.25065 4.90656 2.49885 5.00682 2.70005 5.20802C2.90126 5.40923 3.00116 5.65708 2.99977 5.95158V19.5277H16.5759C16.8718 19.5277 17.12 19.628 17.3205 19.8285C17.521 20.029 17.6209 20.2769 17.6203 20.5721C17.6196 20.8673 17.5193 21.1155 17.3195 21.3167C17.1197 21.5179 16.8718 21.6178 16.5759 21.6164H2.99977ZM12.3987 9.21508C12.3987 9.42394 12.4857 9.57641 12.6597 9.67249C12.8338 9.76857 13.0078 9.76404 13.1819 9.65892L14.4612 8.87568C14.6352 8.77124 14.818 8.71903 15.0095 8.71903C15.2009 8.71903 15.3837 8.77124 15.5577 8.87568L16.837 9.65892C17.0111 9.76335 17.1851 9.76787 17.3592 9.67249C17.5332 9.57711 17.6203 9.42464 17.6203 9.21508V2.81862H12.3987V9.21508Z" fill="#D0D0D0"/>
</svg>
