<svg width="21" height="22" viewBox="0 0 21 22" fill="none" xmlns="http://www.w3.org/2000/svg">
<path d="M12.0494 0.521133C11.655 0.225331 11.1753 0.0654297 10.6823 0.0654297C10.1893 0.0654297 9.70957 0.225331 9.31517 0.521133L1.34036 6.50224C1.05738 6.71448 0.827697 6.98968 0.669504 7.30607C0.511312 7.62245 0.428955 7.97132 0.428955 8.32505V19.148C0.428955 19.7523 0.669012 20.3319 1.09632 20.7592C1.52362 21.1865 2.10317 21.4265 2.70747 21.4265H7.15058C7.48294 21.4265 7.80169 21.2945 8.03671 21.0595C8.27173 20.8245 8.40376 20.5057 8.40376 20.1733V14.591C8.40376 13.9867 8.64382 13.4071 9.07112 12.9798C9.49843 12.5525 10.078 12.3125 10.6823 12.3125C11.2866 12.3125 11.8661 12.5525 12.2934 12.9798C12.7207 13.4071 12.9608 13.9867 12.9608 14.591V20.1733C12.9608 20.5057 13.0928 20.8245 13.3278 21.0595C13.5629 21.2945 13.8816 21.4265 14.214 21.4265H18.6571C19.2614 21.4265 19.8409 21.1865 20.2682 20.7592C20.6955 20.3319 20.9356 19.7523 20.9356 19.148V8.32505C20.9356 7.97132 20.8532 7.62245 20.6951 7.30607C20.5369 6.98968 20.3072 6.71448 20.0242 6.50224L12.0494 0.521133Z" fill="#1E5E4D"/>
</svg>
