<svg width="22" height="21" viewBox="0 0 22 21" fill="none" xmlns="http://www.w3.org/2000/svg">
<path d="M7.17705 16.7234C6.60268 16.7234 6.11115 16.5191 5.70247 16.1104C5.2938 15.7017 5.08911 15.2098 5.08841 14.6348V2.10292C5.08841 1.52855 5.2931 1.03702 5.70247 0.628342C6.11185 0.219665 6.60337 0.0149784 7.17705 0.0142822H19.7089C20.2833 0.0142822 20.7751 0.218969 21.1845 0.628342C21.5939 1.03772 21.7982 1.52924 21.7975 2.10292V14.6348C21.7975 15.2091 21.5932 15.701 21.1845 16.1104C20.7758 16.5198 20.284 16.7241 19.7089 16.7234H7.17705ZM2.99977 20.9007C2.4254 20.9007 1.93387 20.6963 1.52519 20.2877C1.11652 19.879 0.911829 19.3871 0.911133 18.812V5.23588C0.911133 4.93999 1.01139 4.69214 1.2119 4.49233C1.41241 4.29251 1.66026 4.19226 1.95545 4.19156C2.25065 4.19087 2.49885 4.29112 2.70005 4.49233C2.90126 4.69353 3.00116 4.94138 2.99977 5.23588V18.812H16.5759C16.8718 18.812 17.12 18.9123 17.3205 19.1128C17.521 19.3133 17.6209 19.5612 17.6203 19.8564C17.6196 20.1516 17.5193 20.3998 17.3195 20.601C17.1197 20.8022 16.8718 20.9021 16.5759 20.9007H2.99977ZM12.3987 8.49938C12.3987 8.70825 12.4857 8.86072 12.6597 8.95679C12.8338 9.05287 13.0078 9.04835 13.1819 8.94322L14.4612 8.15998C14.6352 8.05555 14.818 8.00333 15.0095 8.00333C15.2009 8.00333 15.3837 8.05555 15.5577 8.15998L16.837 8.94322C17.0111 9.04765 17.1851 9.05217 17.3592 8.95679C17.5332 8.86141 17.6203 8.70894 17.6203 8.49938V2.10292H12.3987V8.49938Z" fill="#1E5E4D"/>
</svg>
