<svg width="21" height="22" viewBox="0 0 21 22" fill="none" xmlns="http://www.w3.org/2000/svg">
<path d="M12.0494 0.805435C11.655 0.509633 11.1753 0.349731 10.6823 0.349731C10.1893 0.349731 9.70957 0.509633 9.31517 0.805435L1.34036 6.78654C1.05738 6.99878 0.827697 7.27398 0.669504 7.59037C0.511312 7.90675 0.428955 8.25562 0.428955 8.60935V19.4323C0.428955 20.0366 0.669012 20.6162 1.09632 21.0435C1.52362 21.4708 2.10317 21.7108 2.70747 21.7108H7.15058C7.48294 21.7108 7.80169 21.5788 8.03671 21.3438C8.27173 21.1088 8.40376 20.79 8.40376 20.4576V14.8753C8.40376 14.271 8.64382 13.6914 9.07112 13.2641C9.49843 12.8368 10.078 12.5968 10.6823 12.5968C11.2866 12.5968 11.8661 12.8368 12.2934 13.2641C12.7207 13.6914 12.9608 14.271 12.9608 14.8753V20.4576C12.9608 20.79 13.0928 21.1088 13.3278 21.3438C13.5629 21.5788 13.8816 21.7108 14.214 21.7108H18.6571C19.2614 21.7108 19.8409 21.4708 20.2682 21.0435C20.6955 20.6162 20.9356 20.0366 20.9356 19.4323V8.60935C20.9356 8.25562 20.8532 7.90675 20.6951 7.59037C20.5369 7.27398 20.3072 6.99878 20.0242 6.78654L12.0494 0.805435Z" fill="#D0D0D0"/>
</svg>
